<svg id="visual" viewBox="0 0 900 600" width="900" height="600" xmlns="http://www.w3.org/2000/svg" xmlns:xlink="http://www.w3.org/1999/xlink" version="1.1"><rect x="0" y="0" width="900" height="600" fill="#001122"></rect><path d="M0 459L11.5 469.3C23 479.7 46 500.3 69 509.8C92 519.3 115 517.7 138.2 515.3C161.3 513 184.7 510 207.8 509C231 508 254 509 277 497.3C300 485.7 323 461.3 346 451.3C369 441.3 392 445.7 415.2 460.2C438.3 474.7 461.7 499.3 484.8 501.3C508 503.3 531 482.7 554 475.7C577 468.7 600 475.3 623 485.8C646 496.3 669 510.7 692.2 508.2C715.3 505.7 738.7 486.3 761.8 478.7C785 471 808 475 831 473.2C854 471.3 877 463.7 888.5 459.8L900 456L900 601L888.5 601C877 601 854 601 831 601C808 601 785 601 761.8 601C738.7 601 715.3 601 692.2 601C669 601 646 601 623 601C600 601 577 601 554 601C531 601 508 601 484.8 601C461.7 601 438.3 601 415.2 601C392 601 369 601 346 601C323 601 300 601 277 601C254 601 231 601 207.8 601C184.7 601 161.3 601 138.2 601C115 601 92 601 69 601C46 601 23 601 11.5 601L0 601Z" fill="#5197ff" stroke-linecap="round" stroke-linejoin="miter"></path></svg>